<svg xmlns="http://www.w3.org/2000/svg" viewBox="0 0 525 150"><path fill="#fbfbfb" stroke="#fbfbfb" d="M13.669 18.665c-.368.367-.669 22.193-.669 48.502V115h491.019l-.259-48.25-.26-48.25-244.581-.252c-134.52-.139-244.883.049-245.25.417M17 67v45h164v-2.5c0-1.858.529-2.5 2.062-2.5 3.731 0 12.692-4.986 16.462-9.158 14.783-16.363 7.647-45.415-12.524-50.985l-5.5-1.518-.282-11.67L180.937 22H17v45m213-26.916c-9.711 4.403-14.085 12.174-12.015 21.349 1.554 6.891 5.992 10.166 19.722 14.555 16.709 5.342 19.343 7.129 17.778 12.061-3.003 9.46-22.793 4.278-27.554-7.216-1.003-2.422-1.736-2.833-5.052-2.833H219v21h3.878c2.132 0 4.38-.606 4.995-1.346.927-1.118 2.095-.996 6.872.72 13.303 4.778 29.775 2.055 35.863-5.927 4.563-5.982 4.308-16.875-.51-21.846-3.838-3.959-12.594-7.811-21.935-9.649-12.079-2.376-16.191-7.995-9.265-12.662 6.979-4.704 18.24-.842 21.753 7.46 1.261 2.979 1.749 3.25 5.862 3.25H271v-9c0-4.95.113-9.337.25-9.75.522-1.567-6.458-1.372-8.227.229-1.655 1.498-2.253 1.465-7.875-.429-8.181-2.756-19.026-2.741-25.148.034m220.6.389c-24.037 9.882-24.563 49.858-.763 57.992 16.965 5.799 34.199 1.097 39.761-10.848C493.339 79.582 492.943 77 487.969 77c-4.068 0-4.306.223-5.346 5-1.465 6.724-10.771 12.678-17.017 10.887-8.898-2.552-13.331-19.973-9.131-35.887 4.009-15.189 19.637-14.869 24.457.5l1.568 5 4.75.305 4.75.305V39h-4.45c-2.899 0-4.741.518-5.283 1.487-.723 1.292-1.515 1.227-6.06-.5-7.528-2.861-17.948-2.663-25.607.486M24 43.44c0 4.408.026 4.441 3.75 4.75l3.75.31.27 20.688.27 20.689-3.77.311c-3.686.305-3.777.41-4.085 4.713-.203 2.844.15 4.696 1 5.235 1.495.948 53.809 1.187 56.233.257 1.329-.51 1.582-2.666 1.582-13.5V74H72.353l-1.151 6.189c-1.495 8.039-2.697 9.12-10.71 9.631l-6.533.416.27-20.868L54.5 48.5l3.75-.31c3.724-.309 3.75-.342 3.75-4.75V39H24v4.44m120.193-.23c.259 3.551.698 4.302 2.807 4.795l2.5.584.267 25.706c.147 14.138.597 25.76 1 25.827 7.134 1.191 11.468.479 13.456-2.209l2.09-2.827 2.889 2.43c5.998 5.047 16.412 5.585 22.888 1.184 10.165-6.909 10.69-29.65.905-39.205-5.19-5.068-14.892-5.852-20.745-1.677L169 60.136V39H143.885l.308 4.21M280 43.5c0 2.958.348 3.502 2.25 3.515 5.167.035 5.25.39 5.25 22.485s-.083 22.45-5.25 22.485c-1.902.013-2.25.557-2.25 3.515V99h26v-3.5c0-2.958-.348-3.502-2.25-3.515-5.109-.035-5.227-.499-5.575-21.947-.432-26.65.21-26.431 8.679 2.962a11142.51 11142.51 0 0 0 5.277 18.25l2.252 7.75h13.252l2.149-6.75C336.247 71.953 342 52.742 342 51.461c0-.804.45-1.461 1-1.461.634 0 1 7.485 1 20.455v20.454l-3.5.657c-3.182.597-3.5.964-3.5 4.045V99h32v-3.5c0-3.039-.32-3.5-2.429-3.5-5.186 0-5.571-1.53-5.571-22.137 0-20.855.442-22.863 5.035-22.863 2.722 0 2.965-.287 2.965-3.5V40h-17.031c-12.76 0-17.125.314-17.405 1.25a19227 19227 0 0 0-3.054 10.25c-6.642 22.297-7.921 25.527-8.882 22.417-1.067-3.45-3.653-12.27-6.647-22.667L312.741 40H280v3.5M100.994 55.934c-10.587 3.221-14.855 10.159-10.025 16.3 3.721 4.73 13.891 3.934 15.525-1.215.821-2.587-.134-7.019-1.513-7.019a.993.993 0 0 1-.981-1c0-3.284 8.624-.12 10.074 3.696 1.662 4.371-.868 6.815-8.943 8.638-13.962 3.153-17.298 5.905-17.298 14.268 0 6.394 2.482 9.522 8.943 11.273 6.317 1.711 12.886.843 17.543-2.317l3.446-2.338 2.5 2.499c4.794 4.794 17.758 3.947 21.254-1.388.969-1.48 1.962-5.453 2.246-8.991l.509-6.34h-3.577c-3.411 0-3.591.174-3.887 3.75-.691 8.348-2.336 2.596-2.81-9.825l-.5-13.093-3.197-2.854c-5.082-4.538-20.632-6.683-29.309-4.044M387 56.87C373.217 59.911 369.868 74 382.929 74c6.511 0 9.475-5.514 5.095-9.479-2.721-2.462-1.685-3.521 3.446-3.521 4.235 0 9.53 3.96 9.53 7.126 0 3.893-3.173 6.766-8.737 7.911-14.804 3.048-18.066 5.074-18.966 11.782-.571 4.257 1.705 9.529 4.65 10.775 6.438 2.722 16.46 1.928 21.389-1.696l2.836-2.085 2.317 2.177c4.781 4.491 16.075 4.501 19.706.017 1.849-2.283 3.376-10.076 2.448-12.495-1.244-3.241-4.504-1.731-4.833 2.238-.246 2.98-.721 3.75-2.31 3.75-1.872 0-2.032-.835-2.504-13-.56-14.411-1.255-16.446-6.466-18.919-3.99-1.893-18.063-2.917-23.53-1.711M171.218 68.022c-4.785 7.663-1.081 26.116 4.629 23.06 3.833-2.051 5.456-15.027 2.704-21.614-1.685-4.032-5.275-4.74-7.333-1.446m223.563 14.03c-7.796 4.117-6.962 10.965 1.219 10.01 2.666-.311 5-4.126 5-8.173 0-4.459-.803-4.697-6.219-1.837M110.25 83.57c-4.38 2.621-5.129 4.151-3.05 6.23 3.485 3.485 8.21-.137 7.61-5.833l-.31-2.941-4.25 2.544m-8.597 36.261c-.912 1.007-1.397 2.091-1.08 2.409.318.317-.333.866-1.446 1.22-1.114.353-2.303 1.519-2.643 2.591-.34 1.072-1.376 1.935-2.301 1.917-1.545-.029-1.539-.141.067-1.36 2.093-1.589 2.298-3.608.367-3.608-.761 0-1.619-.9-1.907-2-.73-2.793-1.964-2.5-4.624 1.098-1.669 2.256-1.991 3.397-1.188 4.2 1.591 1.591 1.355 3.736-.34 3.086-.793-.304-1.58-1.753-1.75-3.219L84.5 123.5l-10.259-.234-10.259-.233.382 3.733c.21 2.054.173 2.834-.082 1.734-1.185-5.104-6.58-7.081-10.958-4.014-1.876 1.314-2.187 1.314-2.691 0-.314-.817-1.657-1.486-2.985-1.486-1.574 0-2.597-.697-2.938-2-.349-1.336-1.364-2-3.057-2-3.047 0-4.254 1.571-2.671 3.478.635.765.988 2.883.784 4.707l-.371 3.315-1.734-3.806c-1.653-3.627-1.932-3.791-5.948-3.5-3.945.287-4.2.487-4.013 3.144.158 2.228-.142 2.706-1.394 2.226-.878-.337-2.402.118-3.388 1.01-.985.892-2.27 1.326-2.855.965C18.715 129.706 18.659 123 20 123c.55 0 1-.9 1-2 0-1.662-.667-2-3.941-2-4.181 0-6.014 1.445-4.172 3.287C14.271 123.671 14.366 131 13 131c-.55 0-1 .677-1 1.505 0 1.778 24.524 1.995 26.75.237.831-.656 1.25-.639 1.25.052 0 1.27 9.069 1.393 10.575.144.645-.536 2.352-.414 4.252.303 2.394.904 3.909.92 6.173.065 1.65-.623 3-.721 3-.219s1.82.913 4.045.913c4.045 0 4.045-.001 3.419-3.339-.622-3.317.031-3.724 4.408-2.744.205.046-.14.701-.767 1.456-3.121 3.761 7.445 6.656 11.808 3.235 1.049-.824 1.52-.787 1.833.142.5 1.486 5.94 1.692 6.423.243.216-.649 1.49-.571 3.583.22 2.464.93 3.972.952 6.248.093 1.65-.623 3-.721 3-.219s1.82.913 4.045.913c4.022 0 4.042-.019 3.437-3.25-.554-2.957-.378-3.263 1.955-3.394 2.559-.144 3.575 1.9 1.563 3.144-2.529 1.563-.895 3.5 2.953 3.5h3.953l-.606-5.25c-.334-2.888-1.006-5.406-1.495-5.597-.489-.191-.349-.998.311-1.793.866-1.043.896-1.748.109-2.535-1.705-1.705-4.538-.129-3.932 2.187.478 1.829.015 1.988-5.803 1.988-3.478 0-6.473.379-6.657.842-.183.464-1.653.295-3.266-.374-2.8-1.163-2.834-1.248-.75-1.91 2.369-.752 3.029-3.558.838-3.558-.74 0-2.091.824-3.002 1.831m88 0c-.912 1.007-1.356 2.132-.989 2.5.368.368-.081.669-.997.669-1 0-1.667-.8-1.667-2 0-1.723-.667-2-4.809-2-6.837 0-10.971 4.077-7.577 7.471.841.841 1.047 1.529.457 1.529-.589 0-1.071 1.291-1.071 2.869 0 2.774.172 2.874 5.165 2.986 2.84.064 5.765-.382 6.5-.992.979-.812 1.335-.808 1.335.015 0 .762 3.536 1.122 11.012 1.122h11.012l-.64-4.25c-.445-2.956-.32-3.945.411-3.25.578.55 1.198 2.35 1.378 4 .363 3.334 3.752 4.637 6.382 2.454.998-.828 1.831-.882 2.695-.175 2.036 1.668 17.913 1.384 19.834-.355 1.437-1.3 1.779-1.294 2.895.051 1.625 1.958 7.403 1.974 9.021.025 1.004-1.209.979-1.503-.128-1.515-1.077-.012-1.049-.222.128-.975 2.567-1.642-.776-6.433-4.758-6.822-2.695-.262-3.509.202-5.186 2.961l-1.99 3.272.217-2.961c.202-2.757-.047-2.982-3.631-3.276-2.488-.205-4.47.246-5.607 1.275-1.573 1.424-1.892 1.431-3.024.066-1.408-1.697-6.565-2.071-7.508-.545-.764 1.236-4.513-.975-4.513-2.662 0-2.648-2.293-2.35-4.969.647-1.556 1.743-3.098 2.736-3.425 2.206-.328-.53-3.076-.994-6.107-1.03l-5.511-.066.634 3.963c.424 2.648.26 3.962-.494 3.962-.649 0-1.128-1.698-1.128-4 0-3.119-.38-4-1.723-4-1.415 0-1.326-.277.5-1.557 1.223-.856 2.223-1.981 2.223-2.5 0-1.582-2.591-1.053-4.347.888m162.032-.453c-.291.758-.024 1.883.593 2.5.829.829-.629 1.122-5.59 1.122h-6.712l.64 4c.4 2.5.252 4-.395 4-.568 0-.795-.915-.502-2.033 1.126-4.308-6.273-8.013-9.519-4.767-.933.933-1.2.933-1.2 0 0-.66-.623-1.2-1.383-1.2-.761 0-1.619-.9-1.907-2-.73-2.793-1.964-2.5-4.624 1.098-1.669 2.256-1.991 3.397-1.188 4.2 1.625 1.625 1.351 3.735-.398 3.064-.825-.317-1.5-1.644-1.5-2.95 0-4.48-9.46-4.864-9.552-.387-.059 2.869-1.12 4.975-2.507 4.975-1.323 0-1.178-7.363.172-8.713 1.838-1.838.012-3.287-4.143-3.287-3.563 0-3.993.291-4.814 3.25-.909 3.28-1.091 3.159-2.625-1.75-.313-1.003-1.785-1.5-4.441-1.5-4.304 0-6.236 1.645-3.993 3.402 1.761 1.378 1.738 7.464-.032 8.558-3.597 2.223.673 2.959 16.509 2.844 13.295-.097 16.661-.402 17.316-1.571.693-1.239.903-1.215 1.43.158.737 1.921 6.311 2.21 6.934.359.32-.951.758-.975 1.833-.099 2.153 1.755 17.913 1.628 17.913-.144 0-.764-.45-1.667-1-2.007-1.753-1.083-1.081-2.251 1.588-2.762 2.449-.468 2.556-.317 1.973 2.789l-.616 3.283 18.403.097c20.63.11 20.856.036 19.975-6.532-.503-3.755-.794-4.086-3.685-4.189-5.482-.196-6.886.671-6.404 3.957.238 1.62.058 3.177-.401 3.46-.458.283-.833-1.312-.833-3.544 0-2.49-.464-4.059-1.2-4.059-.887 0-.907-.293-.078-1.122 1.522-1.522.476-3.878-1.722-3.878s-3.244 2.356-1.722 3.878c.829.829.678 1.122-.578 1.122-1.952 0-2.09.844-.725 4.435 1.52 3.996-.712 3.131-2.411-.935-2.153-5.154-11.771-4.878-10.13.291.356 1.122.179 2.33-.393 2.684-.633.391-1.041-.533-1.041-2.357 0-1.65-.489-3.302-1.087-3.672-.731-.452-.757-1.002-.078-1.681 1.427-1.427.288-3.765-1.835-3.765-.982 0-2.024.62-2.315 1.378m81.515-.178c-1.833 1.833-1.431 3.094.799 2.511 1.099-.288 2.251-.115 2.559.383.61.986-2.875 1.262-11.808.933-4.142-.152-5.75.15-5.75 1.081 0 1.005-.267 1.025-1.2.092-2.071-2.071-6.494-1.404-8.621 1.3-1.082 1.375-2.317 2.5-2.744 2.5-.428 0-1.572.719-2.543 1.598-2.406 2.177-3.892.972-3.892-3.157 0-3.612 2.488-4.939 3.638-1.941 1.207 3.145 4.514 1.759 4.175-1.75-.445-4.617-8.267-5.386-12.431-1.223-6.791 6.791 3.617 17.309 10.745 10.858 1.614-1.461 1.934-1.467 3.339-.062 1.144 1.144 3.674 1.559 9.581 1.572l8.027.018-.618-3.296c-.613-3.268.054-3.676 4.416-2.7.205.046-.14.701-.767 1.456-.627.756-.875 2.062-.553 2.902.785 2.045 40.448 2.592 40.448.558 0-.959.267-.966 1.2-.033 1.452 1.452 6.019 1.581 7.392.208.655-.655 2.079-.581 4.2.219 2.39.903 3.952.931 6.126.11 1.835-.692 3.269-.75 3.864-.155.52.52 2.92.805 5.332.632l4.386-.314.175-5.091.175-5.09-4.3-.163c-2.738-.104-4.744.373-5.524 1.313-1.078 1.299-1.401 1.299-2.697.003-1.729-1.729-5.633-1.915-8.459-.403-1.441.772-2.382.751-3.373-.072-2.271-1.885-6.81-.777-8.209 2.003-1.126 2.236-1.26 2.283-1.273.45-.008-1.128-.504-2.539-1.102-3.137-.748-.748-.762-1.288-.044-1.732 1.554-.961.186-3.581-1.869-3.581-2.198 0-3.244 2.356-1.722 3.878.829.829.675 1.122-.59 1.122-1.437 0-1.609.642-1.072 4 .429 2.68.268 4-.488 4-.62 0-1.128-.93-1.128-2.066 0-4.954-1.416-5.739-10.53-5.838l-8.56-.092.607 3.748c.57 3.522.513 3.631-.955 1.807-.859-1.068-1.562-2.53-1.562-3.25 0-.72-.488-1.309-1.083-1.309-.596 0-.882-.562-.635-1.25 1.19-3.321-2.637-5.995-5.082-3.55M148 120.763c0 .969-.976 2.207-2.168 2.75-3.313 1.508-4.415 3.928-3.27 7.184l.986 2.803h10.976c9.606 0 10.978-.21 10.989-1.679.007-.924.326-1.994.71-2.377.383-.384.029-1.991-.789-3.571-2.679-5.181-9.56-3.171-10.707 3.127-.25 1.375-.516-.312-.591-3.75-.136-6.248-.137-6.25-3.136-6.25-2.199 0-3 .471-3 1.763m113.535-.82c-.359.581-.375 1.507-.035 2.057.34.55-.298 1-1.418 1-3.433 0-5.789 4.649-3.987 7.865 1.637 2.921 12.905 4.616 12.905 1.941 0-.938.267-.939 1.2-.006 1.687 1.687 7.31 1.495 8.8-.3 1.004-1.209.979-1.503-.128-1.515-1.077-.012-1.049-.222.128-.975 1.331-.852 1.328-1.272-.032-3.735-2.235-4.05-6.692-4.33-9.755-.613l-2.34 2.838.314-4.5c.293-4.219.147-4.519-2.343-4.807-1.46-.169-2.949.168-3.309.75M178 122.814c0 .524 1.143 1.171 2.54 1.438 1.602.307 2.404.073 2.171-.633-.456-1.388-4.711-2.115-4.711-.805m-50.345 2.015c-3.828 4.23-.794 9.478 5.188 8.974 7.9-.666 7.702-10.803-.211-10.803-1.948 0-4.006.756-4.977 1.829m57.56 1.921c.838.963 1.772 2.425 2.076 3.25.387 1.055.575.892.63-.55.082-2.133-1.624-4.45-3.276-4.45-.525 0-.269.787.57 1.75m-77.02 1.75c.02 1.65.244 2.204.498 1.231.254-.973.237-2.323-.037-3-.274-.677-.481.119-.461 1.769m106.472-1.833c-1.215 1.214-.691 2.28.833 1.695.825-.317 1.5-.978 1.5-1.469 0-1.048-1.378-1.182-2.333-.226m112 0c-1.215 1.214-.691 2.28.833 1.695.825-.317 1.5-.978 1.5-1.469 0-1.048-1.378-1.182-2.333-.226m92.088 1.833c-.263 1.375-.09 2.5.384 2.5.473 0 .861-1.125.861-2.5s-.173-2.5-.383-2.5c-.211 0-.599 1.125-.862 2.5M45 128.5c0 .825.45 1.5 1 1.5s1-.675 1-1.5-.45-1.5-1-1.5-1 .675-1 1.5m12 .5c0 1.1.45 2 1 2s1-.9 1-2-.45-2-1-2-1 .9-1 2m44 0c0 1.1.45 2 1 2s1-.9 1-2-.45-2-1-2-1 .9-1 2m30-.559c0 .793.45 1.719 1 2.059.55.34 1-.309 1-1.441 0-1.132-.45-2.059-1-2.059s-1 .648-1 1.441m16 .059c0 .825.45 1.5 1 1.5s1-.675 1-1.5-.45-1.5-1-1.5-1 .675-1 1.5m53 .5c0 1.1.45 2 1 2s1-.9 1-2-.45-2-1-2-1 .9-1 2m61-.059c0 2.415.556 2.658 1.349.591.31-.807.133-1.734-.393-2.059-.526-.325-.956.336-.956 1.468m187.079-.358c.048 1.165.285 1.402.604.605.289-.722.253-1.585-.079-1.917-.332-.332-.568.258-.525 1.312M485 129c0 1.1.45 2 1 2s1-.9 1-2-.45-2-1-2-1 .9-1 2m-193.921.583c.048 1.165.285 1.402.604.605.289-.722.253-1.585-.079-1.917-.332-.332-.568.258-.525 1.312m8 0c.048 1.165.285 1.402.604.605.289-.722.253-1.585-.079-1.917-.332-.332-.568.258-.525 1.312M475 129.5c0 .867.595 1.209 1.5.862.825-.317 1.5-.705 1.5-.862 0-.157-.675-.545-1.5-.862-.905-.347-1.5-.005-1.5.862m-297.5.5c.34.55 1.266 1 2.059 1 .793 0 1.441-.45 1.441-1s-.927-1-2.059-1c-1.132 0-1.781.45-1.441 1m49.5 0c-.901.582-1.025.975-.309.985.655.008 1.469-.435 1.809-.985.767-1.242.421-1.242-1.5 0" fill-rule="evenodd"/><path fill="#a3cce8" stroke="#a3cce8" d="M14 67.002v48.002l244.75-.252 244.75-.252.26-47.75.259-47.75H14v48.002m2.667-45.335c-.367.366-.667 20.841-.667 45.5V112h82.5c81.293 0 82.5-.029 82.5-1.961 0-1.466 1.075-2.245 4.25-3.082 29.218-7.702 30.81-50.547 2.25-60.567l-6-2.105-.282-11.642L180.937 21H99.135c-44.991 0-82.102.3-82.468.667m218.086 16.357c-9.58 1.633-16.714 8.515-17.52 16.902-1.092 11.364 3.566 16.378 20.037 21.565C254.463 81.906 258.03 84.97 253 90c-5.214 5.214-17.323 1.614-22.953-6.824-3.273-4.906-3.678-5.176-7.784-5.176h-4.331l.284 10.75.284 10.75 3.96.323c2.821.23 4.312-.158 5.182-1.348 1.131-1.547 1.648-1.509 7.04.528 22.242 8.403 45.046-4.738 39.306-22.65-2.479-7.738-8.274-11.462-24.704-15.875-10.991-2.953-13.892-4.92-12.926-8.766 2.223-8.859 20.688-4.694 24.554 5.538.943 2.497 1.5 2.75 6.063 2.75H272V39h-4.3c-2.365 0-4.8.5-5.41 1.11-.814.814-2.403.703-5.95-.416-6.252-1.972-15.579-2.694-21.587-1.67m222.526-.031c-16.388 2.454-26.067 15.766-25.084 34.499.861 16.403 9.904 26.449 25.573 28.41 20.176 2.523 32.802-5.326 34.429-21.402.286-2.835.085-3.018-3.657-3.323-4.315-.352-6.54 1.447-6.54 5.286 0 3.251-5.627 9.34-9.661 10.454-10.919 3.015-16.328-4.412-16.328-22.417 0-16.133 3.43-22.5 12.12-22.5 6.173 0 9.407 2.727 11.873 10.011l1.858 5.489h10.286l-.037-11.25c-.02-6.187-.054-11.7-.074-12.25-.066-1.772-8.832-1.188-9.865.657-.848 1.515-1.261 1.526-4.8.129-5.084-2.007-13.593-2.767-20.093-1.793M25.191 43.227c.293 4.046.495 4.3 3.809 4.773l3.5.5.284 19c.346 23.155.283 23.5-4.303 23.5-3.459 0-3.481.029-3.481 4.5v4.5h57V74h-4.383c-4.647 0-5.57 1.128-5.603 6.846C71.976 87.263 66.986 91 58.453 91H53l.015-20.25c.017-22.373.034-22.448 4.994-22.919 3.351-.318 3.491-.491 3.491-4.331v-4l-18.309-.273-18.308-.273.308 4.273m119.506-3.59c-1.885 1.884-.643 6.433 2.033 7.45 4.203 1.598 4.238 1.834 4.255 28.163L151 100h5.427c4.599 0 5.728-.382 7.394-2.5 2.444-3.107 2.521-3.104 6.918.25 4.775 3.642 16.355 4.028 20.938.698 9.976-7.251 10.352-31.774.605-39.441-5.876-4.622-14.711-4.604-20.617.042l-2.596 2.042-.285-10.795L168.5 39.5l-11.553-.28c-6.355-.154-11.867.033-12.25.417m134.494 3.589c.293 4.047.495 4.301 3.809 4.774l3.5.5.284 19c.347 23.204.292 23.5-4.361 23.5h-3.538l.308 4.25.307 4.25 13.25.279 13.25.279v-4.529c0-4.328-.128-4.529-2.893-4.529-3.968 0-4.107-.696-4.107-20.582 0-17.425.761-21.148 2.691-13.168.565 2.337 2.692 9.875 4.726 16.75s4.597 15.557 5.696 19.293l1.997 6.792 7.16-.292 7.159-.293 2.202-7.5c8.71-29.66 11.966-39.98 12.619-39.99.971-.013.954 36.122-.019 37.65-.405.638-2.086 1.313-3.734 1.5-2.773.315-2.997.639-2.997 4.34v4h33l.304-4.186.305-4.187-3.805-.313-3.804-.314v-42l3.5-.5c3.314-.473 3.516-.727 3.809-4.773l.308-4.274-17.726.274-17.726.273-1.761 5.5c-.969 3.025-3.174 10.225-4.9 16-4.12 13.787-3.97 13.368-4.59 12.748-.296-.297-2.672-8.124-5.279-17.394L313.394 39.5l-17.256-.274-17.255-.274.308 4.274m-174.988 12.89C94.668 57.702 90 61.493 90 67.65c0 6.03 8.398 9.561 13.777 5.793 2.657-1.86 3.157-8.147.723-9.081-2.778-1.067-1.529-2.362 2.277-2.362 5.333 0 8.223 2.297 8.223 6.534 0 4.389-2.291 5.924-11.838 7.932-13.347 2.808-17.805 8.453-14.187 17.968 2.919 7.677 17.648 8.932 27.404 2.336 1.518-1.027 1.967-1.027 2.34.001 1.468 4.041 13.399 5.771 19.181 2.781 5.583-2.888 7.328-17.052 2.1-17.052-2.174 0-2.541.496-2.814 3.811-.243 2.945-.697 3.738-2 3.489-1.449-.277-1.756-2.176-2.186-13.485-.457-12.028-.7-13.375-2.821-15.629-3.813-4.051-16.101-6.213-25.976-4.57m279.748 1.158c-4.524 1.563-7.311 3.619-8.859 6.535-4.091 7.707 7.17 15.02 13.453 8.736 2.982-2.981 3.066-4.498.439-7.838l-2.016-2.564 2.266-.361C394.952 60.87 400 64.109 400 68.691c0 3.568-3.264 6.022-9.661 7.265-13.803 2.681-17.506 5.511-17.506 13.376 0 10.842 12.345 15.457 24.664 9.22l4.837-2.449 2.91 2.449c4.561 3.838 14.778 3.58 18.833-.475C428.246 93.908 428.552 83 424.5 83c-2.087 0-2.5.475-2.5 2.878 0 3.248-2.649 6.323-3.433 3.985-.251-.75-.604-6.763-.783-13.363-.357-13.122-1.377-16.009-6.548-18.52-3.715-1.805-22.685-2.295-27.285-.706m-212.034 9.592c-3.837 3.107-4.054 19.854-.306 23.602C176.3 95.157 180 89.512 180 77.667c0-10.475-3.202-14.753-8.083-10.801m223.679 15.4c-2.147 1.229-4.395 3.021-4.995 3.984-2.48 3.978 4.324 7.683 7.773 4.233 1.309-1.309 2.523-10.542 1.376-10.467-.137.009-2.007 1.022-4.154 2.25m-285.691 1.019c-3.726 2.511-4.719 5.029-2.865 7.263 3.263 3.932 8.96-.055 8.96-6.271 0-3.937-1.389-4.163-6.095-.992m10.719 36.253c-.34.885.057 1.786.936 2.123 1.957.751 2.849-.152 2.095-2.118-.759-1.978-2.273-1.981-3.031-.005m69.945.385c-1.909 2.11-1.192 2.758 1.303 1.177.754-.478 1.193-1.405.974-2.061-.256-.77-1.062-.457-2.277.884m161.77-.363c-.751 1.957.152 2.849 2.118 2.095 1.978-.759 1.981-2.273.005-3.031-.885-.34-1.786.057-2.123.936m20.194-.613c-.88 1.423.242 3.053 2.099 3.053.876 0 1.378-.703 1.191-1.667-.389-2.009-2.386-2.849-3.29-1.386m61.643.277c-1.752 1.752-1.448 2.276 1.324 2.276 2.791 0 3.149-.716 1.176-2.354-.966-.802-1.641-.781-2.5.078m30.512-.578c-1.374 1.374-.662 3.496 1.062 3.164.962-.186 1.75-.969 1.75-1.74 0-1.579-1.764-2.472-2.812-1.424m-363.006 1.741c-.374.973.042 1.236 1.393.883 2.214-.579 2.61-2.27.532-2.27-.766 0-1.632.624-1.925 1.387M13 120.941c0 .518.45 1.219 1 1.559 1.448.895 1.239 8.246-.25 8.792-3.06 1.122 1.203 2.809 6.357 2.515 4.72-.269 5.433-.588 5.713-2.557.323-2.277-1.184-3.089-2.32-1.25-1.855 3.002-4.5.945-4.5-3.5 0-2.475.45-4.5 1-4.5s1-.45 1-1-1.8-1-4-1-4 .423-4 .941m26-.066c0 .554.425 1.27.945 1.591.519.321.877 2.904.794 5.74-.142 4.867 1.214 7.297 2.716 4.867.427-.691 1.304-.626 2.656.197 1.73 1.054 2.289.901 3.905-1.07l1.885-2.299 2.049 2.049c4.749 4.749 12.82-.941 8.8-6.204-2.138-2.8-6.297-3.199-8.663-.833-2.06 2.06-2.112 2.062-4.013.161-1.148-1.148-2.724-1.717-3.904-1.408-1.472.385-1.939.046-1.824-1.324.11-1.314-.634-1.933-2.596-2.158-1.513-.174-2.75.136-2.75.691m49.687 1.479c-1.163 1.775-1.332 3.288-.687 6.147 1.238 5.489 4.937 7.353 6.988 3.522 1.054-1.97 1.065-1.97 3.035 0 4.626 4.626 11.992-.389 8.942-6.089-1.593-2.976-8.651-2.717-10.058.37-1.568 3.443-4.907 5.317-4.907 2.754 0-1.077.787-2.431 1.75-3.008 1.667-.999 1.667-1.113 0-2.41-.963-.748-1.75-1.873-1.75-2.5 0-1.898-1.676-1.283-3.313 1.214M148 120.8c0 .44.563 1.401 1.25 2.136 1.025 1.095.842 1.238-1.018.789-2.921-.705-5.232 1.603-5.232 5.224 0 3.686 1.488 4.668 7.362 4.859 4.574.149 4.827.026 4.264-2.075-.329-1.228-.605-4.371-.612-6.983C154 120.142 153.91 120 151 120c-1.65 0-3 .36-3 .8m26.571.771c-.864.865-1.571 1.972-1.571 2.461 0 1.705 4.394 4.968 6.689 4.968 1.271 0 2.311.45 2.311 1s-1.098 1-2.441 1c-1.343 0-2.719-.45-3.059-1-1.094-1.77-2.5-1.066-2.495 1.25.004 1.949.586 2.283 4.347 2.498 7.352.421 10.639-5.957 4.148-8.049-3.764-1.214-5.64-2.664-4.93-3.812 1.016-1.645 4.351-.903 5.487 1.22 1.301 2.43 3.608 1.067 2.607-1.54-.822-2.141-8.95-2.138-11.093.004m35.206.377c-1.765 2.06-1.485 8.3.484 10.802 1.516 1.926 4.544 1.483 5.791-.848l1.123-2.097 1.469 2.097c1.474 2.105 3.825 2.623 6.774 1.491 2.504-.961 1.843-2.382-1.168-2.511l-2.75-.119 3-.664c3.339-.739 3.654-3.496.659-5.774-2.684-2.041-4.016-1.565-8.187 2.925-3.946 4.249-3.947 4.249-3.96 1.5-.008-1.783.515-2.75 1.488-2.75.825 0 1.5-.464 1.5-1.031 0-.568-.675-1.291-1.5-1.607-.825-.317-1.5-1.203-1.5-1.969 0-1.951-1.264-1.734-3.223.555M262.5 122c.513 1.616.18 2-1.733 2-2.916 0-4.772 1.738-4.752 4.45.027 3.62 1.584 4.768 6.977 5.146 4.997.35 5.205.266 4.633-1.865-.329-1.227-.604-4.369-.611-6.981-.013-4.43-.187-4.75-2.581-4.75-2.113 0-2.455.355-1.933 2m23.5-1c0 .55.45 1 1 1 1.423 0 1.255 8.748-.177 9.226-1.968.656.13 2.774 2.748 2.774 2.3 0 2.42-.264 1.934-4.25-.496-4.056-.467-4.113.622-1.25 2.475 6.504 4.231 7.023 5.916 1.75 1.663-5.203 2.957-6.312 2.957-2.533 0 1.714-.53 3.293-1.177 3.509-2.061.687.189 2.774 2.991 2.774 2.672 0 2.696-.063 2.691-6.999l-.005-6.998-3.671-.002c-3.265-.001-3.743.33-4.329 2.999-.362 1.65-1.017 3-1.454 3-.438 0-1.066-1.35-1.396-3-.547-2.737-.953-3-4.625-3-2.214 0-4.025.45-4.025 1m35.774 1.25c-3.798 5.867 1.997 15.356 6.076 9.949 1.651-2.189 1.674-2.191 2.916-.203 1.256 2.012 3.708 2.527 6.652 1.397 2.504-.961 1.843-2.382-1.168-2.511l-2.75-.119 3-.664c3.333-.738 3.692-3.574.74-5.849-2.628-2.025-4.095-1.492-8.268 3-3.946 4.249-3.947 4.249-3.96 1.5-.008-1.783.515-2.75 1.488-2.75.825 0 1.5-.464 1.5-1.031 0-.568-.675-1.291-1.5-1.607-.825-.317-1.5-1.203-1.5-1.969 0-2.097-1.587-1.676-3.226.857m73.881-.421c-5.945 6.569 2.615 15.826 9.484 10.257 2.735-2.217 2.006-3.818-.909-1.997-3.108 1.94-5.23.484-5.23-3.589 0-4.45 2.643-5.923 4.8-2.675 2.007 3.023 3.2 2.715 3.2-.825 0-2.921-.128-3-4.845-3-3.424 0-5.33.536-6.5 1.829m-366.926 2.263c-2.427 1.413-1.061 3.208 1.88 2.47 3.455-.867 2.945 1.049-.609 2.288-3.029 1.056-4.057 3.602-1.75 4.331 1.085.343 5.504.314 9.5-.063 1.475-.139 1.713-3.118.25-3.118-.55 0-1-1.136-1-2.525 0-3.543-4.696-5.464-8.271-3.383m36.414-.202c-.946.6-1.021 1.067-.25 1.544 1.388.858 1.453 5.234.091 6.076-1.731 1.07-.011 2.49 3.016 2.49s4.747-1.42 3.016-2.49c-.559-.345-1.016-1.64-1.016-2.878 0-2.041.464-2.244 4.997-2.191 5.48.065 6.423 1.069 2.43 2.587-4.52 1.718-2.75 4.467 2.898 4.5 4.718.028 8.888-2.277 5.925-3.274-.687-.231-1.25-1.519-1.25-2.862 0-3.043-4.291-5.036-7.599-3.529-1.343.612-3.613.644-6.028.083-4.761-1.104-4.578-1.103-6.23-.056m44-.028c-.946.62-1.022 1.095-.25 1.572 1.388.858 1.453 5.234.091 6.076-1.731 1.07-.011 2.49 3.016 2.49s4.747-1.42 3.016-2.49c-1.309-.809-1.321-5.204-.016-6.01.55-.34 1-.111 1 .508 0 .697.818.867 2.146.446 2.021-.642 2.108-.442 1.488 3.432-.646 4.038-.603 4.114 2.295 4.114 2.997 0 5.403-2.056 3.248-2.774-.647-.216-1.177-1.93-1.177-3.809 0-3.408-.013-3.417-4.75-3.431-2.612-.007-5.65-.238-6.75-.513-1.1-.274-2.611-.099-3.357.389m19.482.596c-3.725 2.872-1.388 9.542 3.344 9.542 4.543 0 7.907-6.198 4.775-8.797-2.271-1.885-6.176-2.243-8.119-.745m29.167-.208c-5.239 4.119-.663 11.556 5.626 9.143 2.437-.935 1.879-2.215-1.168-2.677-2.56-.387-2.525-.427.5-.566 3.801-.175 4.274-2.126 1.25-5.15-2.31-2.31-3.969-2.51-6.208-.75m36.576-.037c-.326.529-.093 1.462.519 2.074 1.859 1.859 1.322 4.713-.887 4.713-1.619 0-2-.667-2-3.5 0-2.963-.345-3.5-2.25-3.499-2.017 0-2.257.507-2.321 4.895l-.071 4.894 9.846-.03c8.702-.027 13.692-1.295 9.973-2.534-.647-.216-1.177-1.679-1.177-3.25 0-1.572-.547-3.196-1.216-3.609-1.834-1.134-9.738-1.251-10.416-.154m35.093.872c-1.4 1.575-1.604 2.332-.713 2.644.755.264 1.021 1.343.674 2.726-.468 1.864-.08 2.414 2.087 2.958 5.843 1.466 9.4-3.357 3.991-5.413-1.375-.523-2.5-1.235-2.5-1.584 0-.348 1.125-.35 2.5-.005 1.845.463 2.5.229 2.5-.892 0-.835-.562-1.525-1.25-1.533-.687-.007-2.168-.26-3.289-.561-1.34-.36-2.713.21-4 1.66m12.762-.528c-4.087 2.862-1.659 9.443 3.483 9.443 3.906 0 4.859-2.81 1.11-3.272l-3.316-.408 3.25-.16c2.497-.123 3.25-.61 3.25-2.103 0-1.674-3.345-5.057-5-5.057-.305 0-1.555.701-2.777 1.557m29 0c-4.087 2.862-1.659 9.443 3.483 9.443 3.906 0 4.859-2.81 1.11-3.272l-3.316-.408 3.25-.16c2.497-.123 3.25-.61 3.25-2.103 0-1.674-3.345-5.057-5-5.057-.305 0-1.555.701-2.777 1.557m38.527-.501c-2.602 1.551-2.13 3.25.75 2.699 3.277-.626 3.225 1.019-.073 2.273-4.52 1.718-2.75 4.467 2.898 4.5 4.718.028 8.888-2.277 5.925-3.274-.687-.231-1.257-1.171-1.265-2.087-.035-3.787-4.794-6.163-8.235-4.111m30.665.081c-.352.571-.14 1.538.472 2.15 1.464 1.464 1.425 4.442-.064 4.939-2.144.714.244 2.774 3.217 2.774 2.898 0 2.917-.039 2.358-4.75-.375-3.164-.243-4.297.395-3.393.595.844 1.76 1.102 3.082.683 2.296-.729 3.269 3.635 1.109 4.97-.559.346-.758 1.047-.441 1.559.785 1.271 6.185 1.18 6.987-.118.39-.63 1.111-.694 1.809-.16 1.438 1.101 25.692 1.012 27.411-.1 2.134-1.381 1.387-3.257-2-5.016l-3.25-1.689 3.25.587c2.455.443 3.25.227 3.25-.88 0-1.781-5.74-2.851-8.25-1.538-1.927 1.008-2.325 3.372-.734 4.355 1.328.82.271 2.49-1.575 2.49-.98 0-1.441-1.119-1.441-3.5 0-3.043-.319-3.5-2.437-3.5-2.248 0-2.391.285-1.842 3.668.519 3.196.372 3.582-1.145 3-.957-.368-1.928-.668-2.158-.668-.23 0-.418-1.109-.418-2.465 0-1.433-.829-2.908-1.979-3.524-2.524-1.351-7.021-.258-7.021 1.706 0 1.1.666 1.333 2.5.872 3.636-.912 3.064.993-.75 2.498-1.788.706-3.587 1.462-4 1.681-.413.219-.75-1.214-.75-3.185 0-3.463-.125-3.585-3.75-3.641a101.23 101.23 0 0 1-7.472-.449c-2.047-.216-4.011.074-4.363.644m70.922.045c-4.295 2.077-3.576 8.218 1.099 9.391 1.308.328 3.292.108 4.41-.491 1.343-.718 2.243-.747 2.652-.085.781 1.264 6.188 1.319 6.959.072.317-.512.118-1.213-.441-1.559-.559-.345-1.016-1.647-1.016-2.893 0-2.081.411-2.249 5.043-2.065 6.2.246 7.011.885 2.93 2.308-2.163.754-3.025 1.631-2.792 2.842.306 1.587 2.151 1.775 19.539 1.993 17.339.218 22.279-.341 19.296-2.185-.559-.345-1.016-2.176-1.016-4.069 0-3.187-.231-3.441-3.122-3.441-2.61 0-2.926.237-1.924 1.445 1.592 1.918.94 6.055-.954 6.055-.927 0-1.625-1.145-1.827-3-.476-4.371-1.28-4.78-9.692-4.936-7.601-.141-9.704.613-7.594 2.723 1.762 1.762 1.406 5.039-.469 4.32-.87-.334-1.77-.607-2-.607-.23 0-.418-1.14-.418-2.532 0-3.095-3.21-4.555-7.383-3.358-1.596.458-3.377.538-3.959.179-2.871-1.775-10.646-.877-8.759 1.01 2.888 2.888 1.285 5.708-3.149 5.541-3.684-.139-3.817-.214-1-.563 3.76-.467 4.201-2.326 1.25-5.277-2.242-2.242-2.61-2.295-5.663-.818M472 125c-1.1 1.1-2 2.675-2 3.5 0 1.865 3.533 5.5 5.345 5.5.74 0 2.202-.967 3.25-2.15 1.904-2.148 1.903-2.149-.867-1.475-3.082.749-4.917-1.586-2.861-3.642.844-.844 1.133-.682 1.133.634 0 1.313.515 1.604 2 1.133 1.147-.364 2-.18 2 .433 0 1.792 3.878 5.067 6 5.067 2.252 0 6-3.316 6-5.309 0-4.405-6.669-7.022-9.832-3.859-1.975 1.975-2.031 1.977-3.742.087-2.214-2.447-3.919-2.426-6.426.081m22.471-.581c-2.407 1.787-1.129 4.61 2.624 5.795 1.857.586 1.665.654-.845.297-4.306-.611-4.46 1.997-.168 2.855 6.435 1.287 8.777-2.207 3.668-5.473-3.19-2.04-3.199-2.067-.5-1.466 2.061.458 2.75.231 2.75-.908 0-.835-.638-1.519-1.418-1.519-.78 0-2.031-.235-2.779-.522-.748-.287-2.247.136-3.332.941M44.754 127.25c-.596 1.622.158 3.75 1.329 3.75.504 0 .917-1.125.917-2.5 0-2.608-1.45-3.415-2.246-1.25m11.582.317c-.834 2.172 1.282 4.215 2.797 2.7 1.28-1.28.487-4.267-1.133-4.267-.585 0-1.333.705-1.664 1.567m44 0c-.834 2.172 1.282 4.215 2.797 2.7 1.28-1.28.487-4.267-1.133-4.267-.585 0-1.333.705-1.664 1.567m30.268.023c-.759 1.978.062 3.41 1.955 3.41.87 0 1.441-.99 1.441-2.5 0-2.796-2.423-3.446-3.396-.91m16.396.91c0 1.689.458 2.514 1.25 2.25.688-.229 1.25-1.242 1.25-2.25s-.562-2.021-1.25-2.25c-.792-.264-1.25.561-1.25 2.25m53 0c0 1.375.45 2.5 1 2.5s1-1.125 1-2.5-.45-2.5-1-2.5-1 1.125-1 2.5m44.813-1.817c.721.289 1.584.253 1.916-.079.332-.332-.258-.568-1.312-.525-1.165.048-1.402.285-.604.604m15.591.706c-.652 1.699.225 3.611 1.655 3.611 1.261 0 1.207-3.718-.066-4.504-.554-.343-1.269.059-1.589.893M448 128.5c0 1.375.45 2.5 1 2.5s1-1.125 1-2.5-.45-2.5-1-2.5-1 1.125-1 2.5m6 0c0 1.375.45 2.5 1 2.5s1-1.125 1-2.5-.45-2.5-1-2.5-1 1.125-1 2.5m30.336-.933c-.834 2.172 1.282 4.215 2.797 2.7 1.28-1.28.487-4.267-1.133-4.267-.585 0-1.333.705-1.664 1.567m-252.523 3.116c.721.289 1.584.253 1.916-.079.332-.332-.258-.568-1.312-.525-1.165.048-1.402.285-.604.604m150 0c.721.289 1.584.253 1.916-.079.332-.332-.258-.568-1.312-.525-1.165.048-1.402.285-.604.604" fill-rule="evenodd"/><path fill="#0672c2" stroke="#0672c2" d="M14 66.5V114h489V19H14v47.5m2.24.25.26 45.75H99c82.465 0 82.5-.001 82.794-2.054.211-1.479 1.488-2.374 4.552-3.194 19.025-5.088 27.87-26.946 18.597-45.96-4.33-8.879-10.467-13.652-21.693-16.871-.907-.26-1.25-3.522-1.25-11.89V21H15.98l.26 45.75m218.614-29.368c-14.705 3.163-22.432 15.594-16.855 27.116 2.936 6.066 7.297 8.835 20.517 13.03C251.209 81.555 254 83.167 254 86.466c0 10.165-19.423 5.793-24.525-5.521-1.716-3.806-1.949-3.945-6.627-3.945H218v24h4.45c3.084 0 4.732-.503 5.368-1.639.848-1.515 1.286-1.51 5.8.07 21.348 7.475 41.525-1.201 41.525-17.856 0-11.685-6.698-17.062-27.643-22.192-11.13-2.726-13.659-5.224-9.5-9.383 5.222-5.222 17.529-1.66 21.593 6.25 2.417 4.705 2.488 4.75 7.424 4.75H272V38h-4.45c-2.841 0-4.743.523-5.259 1.445-.697 1.244-1.572 1.196-6.3-.351-7.822-2.56-14.631-3.111-21.137-1.712m223.591-.325c-19.704 2.639-31.557 21.922-26.089 42.443 4.195 15.741 13.699 22.038 33.144 21.96 16.507-.066 27.5-8.853 27.5-21.98v-3.585l-5.213.303c-4.928.285-5.248.47-5.837 3.371-2.849 14.03-18.799 17.207-23.6 4.702-4.375-11.391-1.603-32.537 4.691-35.792 7.125-3.685 13.723-.077 16.61 9.083L481.365 63h11.695l-.28-12.75-.28-12.75-4.127-.301c-2.875-.211-4.648.219-5.843 1.414-1.592 1.592-2.05 1.602-6.373.133-5.959-2.025-11.359-2.54-17.712-1.689M25.922 39.5c-.692 0-.132 6.838.577 7.043.551.16 2.239.561 3.751.893l2.75.602v20.946c0 20.185-.075 20.986-2.078 22.058-1.143.612-2.718.866-3.5.566-.782-.3-1.451-.222-1.486.173-.035.396-.208 2.182-.384 3.969L25.233 99H82V75h-8.742l-.681 5.128c-.949 7.158-4.373 10.453-11.831 11.385-3.077.384-6.079.399-6.67.034-1.59-.982-1.473-41.75.124-43.347.66-.66 2.46-1.2 4-1.2 2.526 0 2.8-.338 2.8-3.455v-3.456l-17.501-.294-17.577-.295m119.491.417c-1.682 1.698-.135 5.749 2.587 6.777l3 1.132V99h5.831c5.196 0 5.977-.272 7.169-2.5 1.537-2.871 3.193-3.177 5.055-.934 7.796 9.394 24.85 5.227 28.469-6.957 6.509-21.92-10.58-41.53-25.356-29.097C168.26 62.8 168 62.23 168 50.396V40.125l-11.087-.313c-6.098-.171-11.273-.124-11.5.105m132.78 3.333c.282 3.901.554 4.277 3.307 4.577 4.553.496 4.668.896 4.664 16.307-.006 27.986.244 25.866-3.042 25.866-3.712 0-5.338 2.036-4.94 6.185l.318 3.315 14.306.278 14.306.278-.306-4.778c-.294-4.586-.437-4.791-3.556-5.091l-3.25-.314V72.27c0-9.682.186-17.416.414-17.187.228.23 1.307 3.792 2.399 7.917 1.091 4.125 3.905 14.138 6.253 22.25l4.269 14.75h15.253l2.614-8.25A2138.062 2138.062 0 0 0 337.014 73c6.301-20.693 5.885-20.636 5.938-.813L343 89.873l-3.25.314c-3.116.3-3.263.508-3.555 5.063l-.305 4.75h34.22l-.305-4.75c-.29-4.516-.46-4.765-3.441-5.055-4.067-.395-4.393-2.044-4.264-21.57.122-18.528.458-20.025 4.59-20.431 2.835-.279 3.144-.66 3.492-4.302.209-2.198.179-4.198-.067-4.444-1.172-1.172-36.191-.403-36.557.802-.209.688-2.025 6.875-4.037 13.75-5.843 19.974-5.71 19.809-8.393 10.399A1130.388 1130.388 0 0 0 317.522 52a325.757 325.757 0 0 1-2.477-8.75L313.923 39h-36.038l.308 4.25M387.5 55.428c-.55.218-2.229.668-3.732.999-5.055 1.114-9.768 6.265-9.768 10.677 0 6.197 3.219 8.517 11 7.928 5.273-.399 8.487-7.74 4.625-10.564-2.439-1.784-1.981-2.468 1.652-2.468 4.808 0 7.723 2.429 7.723 6.434 0 4.253-1.085 5.078-9.125 6.943C375.764 78.649 372 81.73 372 90.004c0 10.845 18.631 16.175 27.581 7.891 2.055-1.902 2.103-1.901 3.871.052 3.702 4.09 13.83 5.113 19.673 1.986 2.832-1.516 4.875-6.921 4.875-12.901V82h-3.44c-3.252 0-3.456.204-3.75 3.75-.707 8.548-2.335 3.105-2.81-9.4-.547-14.373-1.105-15.796-7.498-19.112-2.79-1.448-20.423-2.836-23.002-1.81M102 56.863c-7.413 1.623-11.2 5.264-11.2 10.767 0 4.642 2.099 6.37 7.736 6.37 6.718 0 9.624-4.84 5.428-9.036-2.706-2.706-1.709-3.964 3.14-3.964 7.039 0 11.089 6.424 7.385 11.712-1.075 1.536-3.738 2.652-9.25 3.878C91.592 79.626 89 81.686 89 89.5c0 6.959 2.643 9.576 11.166 11.055 4.23.734 13.909-1.736 15.819-4.037 1.091-1.314 1.603-1.201 4.107.906 5.341 4.494 15.078 4.497 19.568.006 3.266-3.265 3.529-14.43.34-14.43-1.511 0-2.004.672-2.015 2.75-.021 3.653-1.415 5.683-3.384 4.927-1.332-.511-1.61-2.508-1.657-11.896-.07-13.815-1.184-17.456-6.121-20.004-4.089-2.11-18.76-3.241-24.823-1.914m68.273 10.843c-2.635 4.022-2.545 19.231.132 22.189 2.66 2.939 6.168 2.686 8.322-.601 2.635-4.022 2.545-19.231-.132-22.189-2.66-2.939-6.168-2.686-8.322.601m-60.768 15.122c-6.008 4.154-5.71 9.172.546 9.172 4.063 0 5.949-2.4 5.949-7.571 0-5.243-.904-5.466-6.495-1.601m285.227.708c-3.968 2.697-4.842 5.743-2.09 7.284 3.813 2.134 7.358-1.424 7.358-7.385 0-3.057-.639-3.044-5.268.101M102.5 120c-.34.55-.168 1 .382 1s1.278-.45 1.618-1c.34-.55.168-1-.382-1s-1.278.45-1.618 1m18.5.5c0 .917.484 1.505 1.075 1.308.591-.197 1.075-.785 1.075-1.308s-.484-1.111-1.075-1.308c-.591-.197-1.075.391-1.075 1.308m69.5-.5c-.34.55-.168 1 .382 1s1.278-.45 1.618-1c.34-.55.168-1-.382-1s-1.278.45-1.618 1m162.5.5c0 .825.45 1.5 1 1.5s1-.675 1-1.5-.45-1.5-1-1.5-1 .675-1 1.5m20 0c0 .825.45 1.5 1 1.5s1-.675 1-1.5-.45-1.5-1-1.5-1 .675-1 1.5m61-.441c0 .582.45.781 1 .441s1-.816 1-1.059-.45-.441-1-.441-1 .477-1 1.059m31 .441c0 .825.45 1.5 1 1.5s1-.675 1-1.5-.45-1.5-1-1.5-1 .675-1 1.5m-451.2.7c1.554 1.554 1.554 9.046 0 10.6-.933.933.178 1.2 5 1.2 5.605 0 6.2-.199 6.2-2.071 0-1.911-.126-1.946-1.621-.45-2.895 2.894-4.848 1.486-5.184-3.738-.183-2.851.116-4.741.75-4.741.58 0 1.055-.45 1.055-1s-1.665-1-3.7-1c-2.878 0-3.433.267-2.5 1.2m26.593.382c.334.87.607 3.71.607 6.312v4.731l3.95-.063c5.018-.079 6.23-1.27 5.177-5.086-.669-2.425-1.313-2.941-3.474-2.788-2.197.156-2.653-.231-2.653-2.25 0-1.813-.54-2.438-2.107-2.438-1.51 0-1.935.448-1.5 1.582M90 121.45c0 .798-.733 1.861-1.628 2.362-1.114.623-1.272 1.132-.5 1.609.62.383 1.128 2.035 1.128 3.669 0 3.233 1.922 4.593 4.75 3.362 1.667-.725 1.667-.781 0-1.18-.967-.231-1.75-1.343-1.75-2.485 0-1.137.787-2.664 1.75-3.395 1.667-1.265 1.667-1.33 0-1.36-1.073-.02-1.75-.806-1.75-2.032 0-1.1-.45-2-1-2s-1 .653-1 1.45m59.602 1.099c.589 2.347.432 2.498-1.974 1.894-2.142-.538-2.772-.231-3.491 1.7-1.66 4.46.018 6.33 5.917 6.596 4.117.186 5.056-.029 4.136-.949-.655-.655-1.19-3.575-1.19-6.49 0-4.65-.248-5.3-2.019-5.3-1.665 0-1.907.447-1.379 2.549m25.98-1.233c-2.654 1.941-1.578 5.015 2.181 6.235 4.646 1.507 5.964 3.084 3.289 3.933-1.322.419-3.094.063-4.601-.924-2.284-1.496-2.451-1.485-2.446.167.007 2.476 8.136 2.989 10.464.661 2.576-2.576 1.366-4.207-4.719-6.364-1.512-.536-2.75-1.661-2.75-2.499 0-2.142 4.939-1.973 6.608.225 1.23 1.621 1.331 1.584 1.36-.5.038-2.654-6.186-3.273-9.386-.934M210.5 122c-.349 1.1-1.144 2-1.767 2-.806 0-.787.346.067 1.2.66.66 1.2 2.474 1.2 4.031 0 3.099 1.986 4.437 4.75 3.2 1.535-.687 1.474-.831-.5-1.176-2.721-.477-3.03-3.688-.5-5.205 1.645-.987 1.648-1.112.042-2.076-.94-.565-1.454-1.69-1.143-2.5.311-.811.097-1.474-.475-1.474-.571 0-1.325.9-1.674 2m51.5-1.129c0 .556.457 1.294 1.016 1.639.559.346.753 1.054.431 1.575a1.113 1.113 0 0 1-1.525.367c-2.558-1.581-5.033.714-4.727 4.383l.305 3.665 5.368.245c4.578.208 5.192.032 4.171-1.198-.673-.811-1.066-3.542-.897-6.244.268-4.308.07-4.836-1.922-5.123-1.221-.175-2.22.136-2.22.691m25 .007c0 .552.45 1.282 1 1.622.55.34 1 2.391 1 4.559s-.45 3.941-1 3.941-1 .45-1 1 1.215 1 2.7 1c2.1 0 2.433-.267 1.5-1.2-1.44-1.44-1.615-7.8-.214-7.8.542 0 1.495 2.025 2.118 4.5.624 2.475 1.697 4.5 2.385 4.5.688 0 1.818-2.025 2.511-4.5.693-2.475 1.651-4.5 2.13-4.5 1.315 0 1.043 6.427-.33 7.8-.933.933-.333 1.2 2.7 1.2 3.033 0 3.633-.267 2.7-1.2-1.446-1.446-1.617-9.8-.2-9.8.55 0 1-.45 1-1s-1.562-1-3.471-1c-3.062 0-3.569.375-4.296 3.182-1.127 4.348-2.964 4.64-3.994.636-.716-2.779-1.373-3.369-4.047-3.631-1.755-.173-3.192.138-3.192.691m36 .572c0 .798-.733 1.861-1.628 2.362-1.114.623-1.272 1.132-.5 1.609.62.383 1.128 2.035 1.128 3.669 0 3.212 1.891 4.572 4.75 3.417 1.558-.63 1.505-.802-.483-1.569-2.451-.945-2.153-3.453.671-5.656 1.396-1.089 1.376-1.222-.188-1.25-1.073-.02-1.75-.806-1.75-2.032 0-1.1-.45-2-1-2s-1 .653-1 1.45m73.174.864c-2.712 2.888-2.776 6.084-.174 8.686 2.97 2.97 10 2.493 10-.678 0-1.241-.24-1.225-1.571.107-3.369 3.368-7.185-.571-5.82-6.008.695-2.767 4.792-3.423 5.753-.921.84 2.191 2.539 1.837 1.952-.408-.477-1.825-3.019-3.049-6.39-3.078-.866-.008-2.554 1.028-3.75 2.3m-367.46 2.305c-1.518 1.518-.6 2.391 1.865 1.772 2.335-.586 2.548-.397 2.25 2.012-.181 1.463-.779 2.6-1.329 2.528-.55-.072-.873-.578-.719-1.125.155-.546-.295-.802-1-.567-.704.235-1.416 1.125-1.582 1.978-.337 1.735 9.328 2.357 10.372.668.301-.487-.126-.885-.949-.885-.956 0-1.608-1.172-1.809-3.25-.31-3.219-4.96-5.269-7.099-3.131m25.486.581c-2.991 2.991-.648 7.8 3.8 7.8 3.144 0 5-1.67 5-4.5 0-4.05-5.855-6.245-8.8-3.3M65 125c0 .55.45 1 1 1 1.401 0 1.251 4.349-.2 5.8-.933.933-.462 1.2 2.122 1.2 2.843 0 3.143-.217 2.076-1.502-.74-.892-1.003-2.721-.648-4.5.537-2.685.341-2.998-1.875-2.998-1.361 0-2.475.45-2.475 1m7 .5c0 .825.45 1.5 1 1.5s1-.675 1-1.5-.45-1.5-1-1.5-1 .675-1 1.5m4.714-.881c-1.49 1.49-.62 2.396 1.733 1.805 2.198-.552 2.425-.324 2.229 2.231-.12 1.565-.659 2.688-1.197 2.495-.539-.192-.867-.755-.729-1.25.388-1.397-1.372-1.061-2.676.511-.644.776-.812 1.616-.373 1.866 1.505.857 10.299.543 10.299-.367 0-.501-.421-.91-.937-.91-.515 0-1.077-1.463-1.25-3.25-.31-3.219-4.96-5.269-7.099-3.131m21.486.581c-2.991 2.991-.648 7.8 3.8 7.8 3.144 0 5-1.67 5-4.5 0-4.05-5.855-6.245-8.8-3.3m10.8-.2c0 .55.45 1 1 1 1.401 0 1.251 4.349-.2 5.8-.933.933-.462 1.2 2.122 1.2 2.843 0 3.143-.217 2.076-1.502-.74-.892-1.003-2.721-.648-4.5.537-2.685.341-2.998-1.875-2.998-1.361 0-2.475.45-2.475 1m7 .664c0 1.573 1.609 1.778 2.51.32.346-.559 1.047-.758 1.559-.441 1.325.819 1.153 4.835-.269 6.257-.933.933-.465 1.2 2.107 1.2 2.605 0 3.178-.336 2.7-1.582-.334-.87-.607-2.892-.607-4.493 0-2.755-.213-2.902-4-2.754-2.593.102-4 .627-4 1.493m12.571-.093c-2.941 2.942-.97 7.429 3.264 7.429 3.298 0 5.165-1.626 5.165-4.5 0-4.278-5.253-6.104-8.429-2.929m28.212 1.007c-1.619 3.553.018 5.871 4.318 6.114 2.644.149 2.886.038 1.09-.5-3.054-.915-2.897-2.612.278-3.008 4.368-.546 2.408-5.184-2.19-5.184-1.525 0-2.725.885-3.496 2.578M187.8 125.2c.66.66 1.2 2.145 1.2 3.3 0 1.155-.54 2.64-1.2 3.3-.933.933.275 1.2 5.437 1.2h6.637l-.568-3.5c-.509-3.136-.332-3.5 1.694-3.5s2.203.364 1.694 3.5c-.52 3.204-.361 3.5 1.888 3.5 2.161 0 2.383-.33 1.844-2.75-1.362-6.122-1.255-6.019-6.311-6.019h-4.823l.104 3.634c.148 5.175-2.777 5.07-3.206-.115-.274-3.308-.622-3.75-2.95-3.75-2.053 0-2.373.267-1.44 1.2m31.443-.043c-3.207 3.207-.656 7.902 4.207 7.743 2.833-.092 2.877-.148.624-.777-3.677-1.028-3.804-3.123-.19-3.123 2.743 0 2.968-.228 2.226-2.25-.941-2.565-4.962-3.498-6.867-1.593m10.424-.49c-1.504 1.503-.479 3.204 2.583 4.29 3.16 1.12 3.194 1.194 1.25 2.669-1.922 1.458-1.886 1.505.923 1.196 4.068-.448 4.436-2.672.677-4.09-3.965-1.497-4.035-3.169-.1-2.382 3.463.693 4.121-.816.75-1.72-2.975-.797-5.263-.783-6.083.037m12.458.235c-3.717 2.354-.906 8.144 3.875 7.983 2.486-.084 2.487-.088.191-.735-3.425-.964-3.145-2.606.505-2.959 2.52-.244 3.064-.667 2.573-2-1.128-3.062-4.313-4.083-7.144-2.289m29.302-.137c-3.917 2.682-1.949 8.284 2.858 8.135 2.758-.085 2.886-.192.906-.75-3.425-.964-3.145-2.606.505-2.959 4.364-.423 2.807-5.16-1.696-5.16-.825 0-1.983.33-2.573.734m38.287-.146c-1.489 1.489-.621 2.396 1.728 1.806 2.109-.529 2.408-.293 2.192 1.731-.138 1.289-.674 2.411-1.192 2.494-.518.083-.818-.29-.666-.828.152-.538-.523-.825-1.5-.637-4.251.819-1.77 3.315 3.474 3.494 2.887.099 5.25-.238 5.25-.75a.935.935 0 0 0-.937-.929c-.515 0-1.077-1.463-1.25-3.25-.31-3.219-4.96-5.269-7.099-3.131m21.486.581c-3.168 3.168-.579 7.858 4.25 7.7 2.833-.092 2.877-.148.624-.777-3.695-1.033-3.8-3.123-.157-3.123 3.397 0 3.559-.242 2.048-3.066-1.157-2.162-4.928-2.571-6.765-.734m10.3 3.3c0 4.316.12 4.5 2.95 4.5 2.294 0 2.683-.267 1.75-1.2-.66-.66-1.2-2.685-1.2-4.5 0-2.476-.437-3.3-1.75-3.3-1.407 0-1.75.881-1.75 4.5m6.136-3.006c.316.822.984 1.241 1.485.931 1.049-.648.207-2.425-1.149-2.425-.5 0-.651.672-.336 1.494M351 125c0 .55.45 1 1 1 1.401 0 1.251 4.349-.2 5.8-.933.933-.444 1.2 2.2 1.2s3.133-.267 2.2-1.2c-.66-.66-1.2-2.685-1.2-4.5 0-2.633-.404-3.3-2-3.3-1.1 0-2 .45-2 1m8.714-.381c-1.501 1.502-.612 2.394 1.786 1.792 2.188-.55 2.5-.302 2.5 1.981 0 2.636-1.502 3.602-2.226 1.431-.501-1.503-2.774-.147-2.774 1.656 0 .987 1.351 1.311 4.925 1.182 4.406-.159 8.75-1.661 4.805-1.661-1.078 0-1.706-1.065-1.917-3.25-.31-3.219-4.96-5.269-7.099-3.131m12.086.581c.66.66 1.2 2.145 1.2 3.3 0 1.155-.54 2.64-1.2 3.3-.933.933-.462 1.2 2.122 1.2 2.831 0 3.14-.221 2.086-1.491-.681-.82-1.039-2.845-.796-4.5.392-2.668.155-3.009-2.085-3.009-1.965 0-2.26.267-1.327 1.2m7.58.252c-.769 2.003.372 3.548 2.62 3.548 2.646 0 3.38 1.68 1.271 2.908-1.616.941-1.585 1.034.357 1.062 4.341.062 4.98-2.818.994-4.483-4.402-1.84-4.684-2.87-.622-2.274 3.17.466 4.093-.58 1.418-1.606-2.728-1.047-5.459-.665-6.038.845m30.552.674c-1.876 3.507.274 6.897 4.297 6.774 2.777-.084 2.923-.197.962-.75-3.057-.861-2.897-2.57.278-2.966 2.712-.339 3.279-2.036 1.331-3.984-1.911-1.911-5.617-1.411-6.868.926M420 125c0 .55.45 1 1 1 1.401 0 1.251 4.349-.2 5.8-.933.933-.462 1.2 2.122 1.2 2.843 0 3.143-.217 2.076-1.502-.74-.892-1.003-2.721-.648-4.5.537-2.685.341-2.998-1.875-2.998-1.361 0-2.475.45-2.475 1m7 .5c0 .825.45 1.5 1 1.5s1-.675 1-1.5-.45-1.5-1-1.5-1 .675-1 1.5m4.714-.881c-1.512 1.512-.605 2.392 1.836 1.779 2.306-.579 2.517-.386 2.196 2.007-.195 1.456-.78 2.591-1.3 2.521-.52-.069-.833-.531-.696-1.026.388-1.397-1.372-1.061-2.676.511-1.767 2.129-.787 2.287 15.42 2.49 11.961.15 14.743-.064 13.75-1.057-.684-.684-1.244-2.665-1.244-4.401v-3.157h-7.983c-7.885 0-7.976.029-7.392 2.355.856 3.412-.153 5.295-2.508 4.679-1.374-.359-2.102-1.516-2.311-3.672-.303-3.121-4.996-5.125-7.092-3.029m32.086.581c.66.66 1.2 2.145 1.2 3.3 0 1.155-.54 2.64-1.2 3.3-.933.933-.462 1.2 2.122 1.2 2.831 0 3.14-.221 2.086-1.491-.681-.82-1.039-2.845-.796-4.5.392-2.668.155-3.009-2.085-3.009-1.965 0-2.26.267-1.327 1.2m8.443-.043c-1.68 1.68-1.571 5.326.202 6.797 1.804 1.498 5.749.999 6.342-.801.349-1.056.01-1.115-1.566-.271-1.542.825-2.295.734-3.228-.39-1.511-1.821-.598-4.492 1.535-4.492.874 0 1.312.45.972 1-.34.55.117 1 1.014 1 1.015 0 1.507-.663 1.301-1.75-.401-2.115-4.816-2.849-6.572-1.093m9.957.043c-2.991 2.991-.648 7.8 3.8 7.8 3.144 0 5-1.67 5-4.5 0-4.05-5.855-6.245-8.8-3.3m12.18.252c-.775 2.021.378 3.548 2.679 3.548 2.084 0 2.606 1.471.897 2.527-.574.355-1.699.101-2.5-.563-.998-.829-1.456-.862-1.456-.105 0 1.353 4.44 2.57 6.498 1.78 1.845-.708 2.001-3.639.193-3.639-.72 0-2.182-.701-3.25-1.558-1.844-1.48-1.778-1.539 1.309-1.173 3.694.437 4.404-.727 1-1.639-3.51-.94-4.768-.748-5.37.822M44 128.5c0 1.833.533 2.5 2 2.5s2-.667 2-2.5-.533-2.5-2-2.5-2 .667-2 2.5m11.332-.922c-.725 1.888 2.016 4.943 3.572 3.981.603-.372 1.096-1.775 1.096-3.118 0-2.836-3.652-3.512-4.668-.863m44.238.1c-.755 1.967 1.737 4.868 3.334 3.881.603-.372 1.096-1.775 1.096-3.118 0-2.879-3.394-3.463-4.43-.763m30.43.715c0 2.855 2.374 4.066 4.039 2.06 1.611-1.941.478-4.453-2.008-4.453-1.476 0-2.031.654-2.031 2.393m16.38-.941c-.712 1.856.327 3.548 2.179 3.548.87 0 1.441-.99 1.441-2.5 0-2.748-2.671-3.521-3.62-1.048M159 127c0 .55.9 1 2 1s2-.45 2-1-.9-1-2-1-2 .45-2 1m62 0c0 .55.675 1 1.5 1s1.5-.45 1.5-1-.675-1-1.5-1-1.5.45-1.5 1m22.5 0c.34.55 1.266 1 2.059 1 .793 0 1.441-.45 1.441-1s-.927-1-2.059-1c-1.132 0-1.781.45-1.441 1m15.864.493c-.346.903-.15 2.121.436 2.707 1.524 1.524 4.41.131 4.012-1.935-.443-2.302-3.647-2.858-4.448-.772M272.5 127c.34.55 1.266 1 2.059 1 .793 0 1.441-.45 1.441-1s-.927-1-2.059-1c-1.132 0-1.781.45-1.441 1m60.5 0c0 .55.648 1 1.441 1s1.719-.45 2.059-1c.34-.55-.309-1-1.441-1-1.132 0-2.059.45-2.059 1m79 0c0 .55.9 1 2 1s2-.45 2-1-.9-1-2-1-2 .45-2 1m35 1.368c0 2.224 1.562 4.428 2.469 3.482 1.32-1.377.815-5.344-.719-5.649-1.295-.257-1.75.306-1.75 2.167m6.667-1.701c-1.492 1.492-.618 4.333 1.333 4.333 1.467 0 2-.667 2-2.5 0-2.353-1.815-3.351-3.333-1.833m29.903 1.011c-1.079 2.813 2.198 5.299 3.922 2.975.754-1.016 1.128-2.479.832-3.25-.747-1.947-3.973-1.76-4.754.275M229 131c0 .55.477 1 1.059 1s.781-.45.441-1-.816-1-1.059-1-.441.45-.441 1m150 0c0 .55.477 1 1.059 1s.781-.45.441-1-.816-1-1.059-1-.441.45-.441 1" fill-rule="evenodd"/></svg>